<svg xmlns="http://www.w3.org/2000/svg" xmlns:xlink="http://www.w3.org/1999/xlink" id="processonSvg1000" viewBox="204.0 140.0 512.0 504.0" width="512.0" height="504.0"><defs id="ProcessOnDefs1001"><marker id="ProcessOnMarker1015" markerUnits="userSpaceOnUse" orient="auto" markerWidth="16.23606797749979" markerHeight="10.550836550532098" viewBox="-1.0 -1.3763819204711736 16.23606797749979 10.550836550532098" refX="-1.0" refY="3.8990363547948754"><path id="ProcessOnPath1016" d="M12.0 3.8990363547948754L0.0 7.798072709589751V0.0Z" stroke="#323232" stroke-width="2.0" fill="#323232" transform="matrix(1.0,0.0,0.0,1.0,0.0,0.0)"/></marker><marker id="ProcessOnMarker1023" markerUnits="userSpaceOnUse" orient="auto" markerWidth="16.23606797749979" markerHeight="10.550836550532098" viewBox="-1.0 -1.3763819204711736 16.23606797749979 10.550836550532098" refX="-1.0" refY="3.8990363547948754"><path id="ProcessOnPath1024" d="M12.0 3.8990363547948754L0.0 7.798072709589751V0.0Z" stroke="#323232" stroke-width="2.0" fill="#323232" transform="matrix(1.0,0.0,0.0,1.0,0.0,0.0)"/></marker><marker id="ProcessOnMarker1030" markerUnits="userSpaceOnUse" orient="auto" markerWidth="16.23606797749979" markerHeight="10.550836550532098" viewBox="-1.0 -1.3763819204711736 16.23606797749979 10.550836550532098" refX="-1.0" refY="3.8990363547948754"><path id="ProcessOnPath1031" d="M12.0 3.8990363547948754L0.0 7.798072709589751V0.0Z" stroke="#323232" stroke-width="2.0" fill="#323232" transform="matrix(1.0,0.0,0.0,1.0,0.0,0.0)"/></marker><marker id="ProcessOnMarker1041" markerUnits="userSpaceOnUse" orient="auto" markerWidth="16.23606797749979" markerHeight="10.550836550532098" viewBox="-1.0 -1.3763819204711736 16.23606797749979 10.550836550532098" refX="-1.0" refY="3.8990363547948754"><path id="ProcessOnPath1042" d="M12.0 3.8990363547948754L0.0 7.798072709589751V0.0Z" stroke="#323232" stroke-width="2.0" fill="#323232" transform="matrix(1.0,0.0,0.0,1.0,0.0,0.0)"/></marker><marker id="ProcessOnMarker1056" markerUnits="userSpaceOnUse" orient="auto" markerWidth="16.23606797749979" markerHeight="10.550836550532098" viewBox="-1.0 -1.3763819204711736 16.23606797749979 10.550836550532098" refX="-1.0" refY="3.8990363547948754"><path id="ProcessOnPath1057" d="M12.0 3.8990363547948754L0.0 7.798072709589751V0.0Z" stroke="#323232" stroke-width="2.0" fill="#323232" transform="matrix(1.0,0.0,0.0,1.0,0.0,0.0)"/></marker><marker id="ProcessOnMarker1063" markerUnits="userSpaceOnUse" orient="auto" markerWidth="16.23606797749979" markerHeight="10.550836550532098" viewBox="-1.0 -1.3763819204711736 16.23606797749979 10.550836550532098" refX="-1.0" refY="3.8990363547948754"><path id="ProcessOnPath1064" d="M12.0 3.8990363547948754L0.0 7.798072709589751V0.0Z" stroke="#323232" stroke-width="2.0" fill="#323232" transform="matrix(1.0,0.0,0.0,1.0,0.0,0.0)"/></marker><marker id="ProcessOnMarker1075" markerUnits="userSpaceOnUse" orient="auto" markerWidth="16.23606797749979" markerHeight="10.550836550532098" viewBox="-1.0 -1.3763819204711736 16.23606797749979 10.550836550532098" refX="-1.0" refY="3.8990363547948754"><path id="ProcessOnPath1076" d="M12.0 3.8990363547948754L0.0 7.798072709589751V0.0Z" stroke="#323232" stroke-width="2.0" fill="#323232" transform="matrix(1.0,0.0,0.0,1.0,0.0,0.0)"/></marker></defs><g id="ProcessOnG1002"><path id="ProcessOnPath1003" d="M204.0 140.0H716.0V644.0H204.0V140.0Z" fill="none"/><g id="ProcessOnG1004"><g id="ProcessOnG1005" transform="matrix(1.0,0.0,0.0,1.0,386.0,160.0)" opacity="1.0"><path id="ProcessOnPath1006" d="M16.666666666666668 0.0L83.33333333333333 0.0C105.55555555555556 0.0 105.55555555555556 50.0 83.33333333333333 50.0L16.666666666666668 50.0C-5.555555555555556 50.0 -5.555555555555556 0.0 16.666666666666668 0.0Z" stroke="#323232" stroke-width="2.0" stroke-dasharray="none" opacity="1.0" fill="#ffffff"/><g id="ProcessOnG1007" transform="matrix(1.0,0.0,0.0,1.0,10.0,16.875)"><text id="ProcessOnText1008" fill="#000000" font-size="13" x="39.0" y="13.325" font-family="微软雅黑" font-weight="normal" font-style="normal" text-decoration="none" family="微软雅黑" text-anchor="middle" size="13">解析相对路径</text></g></g><g id="ProcessOnG1009" transform="matrix(1.0,0.0,0.0,1.0,382.5,261.0)" opacity="1.0"><path id="ProcessOnPath1010" d="M0.0 32.0L53.5 0.0L107.0 32.0L53.5 64.0L0.0 32.0Z" stroke="#323232" stroke-width="2.0" stroke-dasharray="none" opacity="1.0" fill="#ffffff"/><g id="ProcessOnG1011" transform="matrix(1.0,0.0,0.0,1.0,10.0,23.875)"><text id="ProcessOnText1012" fill="#000000" font-size="13" x="42.5" y="13.325" font-family="微软雅黑" font-weight="normal" font-style="normal" text-decoration="none" family="微软雅黑" text-anchor="middle" size="13">文件/文件夹</text></g></g><g id="ProcessOnG1013"><path id="ProcessOnPath1014" d="M436.0 210.0L436.0 235.5L436.0 235.5L436.0 245.7639320225002" stroke="#323232" stroke-width="2.0" stroke-dasharray="none" fill="none" marker-end="url(#ProcessOnMarker1015)"/></g><g id="ProcessOnG1017" transform="matrix(1.0,0.0,0.0,1.0,224.0,579.0)" opacity="1.0"><path id="ProcessOnPath1018" d="M0.0 0.0L100.0 0.0L100.0 45.0L0.0 45.0Z" stroke="#323232" stroke-width="2.0" stroke-dasharray="none" opacity="1.0" fill="#ffffff"/><g id="ProcessOnG1019" transform="matrix(1.0,0.0,0.0,1.0,10.0,14.375)"><text id="ProcessOnText1020" fill="#000000" font-size="13" x="39.0" y="13.325" font-family="微软雅黑" font-weight="normal" font-style="normal" text-decoration="none" family="微软雅黑" text-anchor="middle" size="13">直接加载</text></g></g><g id="ProcessOnG1021"><path id="ProcessOnPath1022" d="M382.5 293.0L274.0 293.0L274.0 563.7639320225002" stroke="#323232" stroke-width="2.0" stroke-dasharray="none" fill="none" marker-end="url(#ProcessOnMarker1023)"/><g id="ProcessOnG1025" transform="matrix(1.0,0.0,0.0,1.0,274.0,366.0069660112501)"><path id="ProcessOnPath1026" d="M0 0H26.0V16.25H0Z" fill="#fff" transform="matrix(1.0,0.0,0.0,1.0,-13.0,0.0)"/><text id="ProcessOnText1027" fill="#000000" font-size="13" x="0.0" y="13.325" font-family="微软雅黑" font-weight="normal" font-style="normal" text-decoration="none" family="微软雅黑" text-anchor="middle" size="13">文件</text></g></g><g id="ProcessOnG1028"><path id="ProcessOnPath1029" d="M489.5 293.0L535.5 293.0L535.5 332.7639320225002" stroke="#323232" stroke-width="2.0" stroke-dasharray="none" fill="none" marker-end="url(#ProcessOnMarker1030)"/><g id="ProcessOnG1032" transform="matrix(1.0,0.0,0.0,1.0,532.3819660112501,284.875)"><path id="ProcessOnPath1033" d="M0 0H39.0V16.25H0Z" fill="#fff" transform="matrix(1.0,0.0,0.0,1.0,-19.5,0.0)"/><text id="ProcessOnText1034" fill="#000000" font-size="13" x="0.0" y="13.325" font-family="微软雅黑" font-weight="normal" font-style="normal" text-decoration="none" family="微软雅黑" text-anchor="middle" size="13">文件夹</text></g></g><g id="ProcessOnG1035" transform="matrix(1.0,0.0,0.0,1.0,440.0,348.0)" opacity="1.0"><path id="ProcessOnPath1036" d="M0.0 32.5L95.5 0.0L191.0 32.5L95.5 65.0L0.0 32.5Z" stroke="#323232" stroke-width="2.0" stroke-dasharray="none" opacity="1.0" fill="#ffffff"/><g id="ProcessOnG1037" transform="matrix(1.0,0.0,0.0,1.0,10.0,24.375)"><text id="ProcessOnText1038" fill="#000000" font-size="13" x="84.5" y="13.325" font-family="微软雅黑" font-weight="normal" font-style="normal" text-decoration="none" family="微软雅黑" text-anchor="middle" size="13">是否有package.json</text></g></g><g id="ProcessOnG1039"><path id="ProcessOnPath1040" d="M440.0 380.5L423.0 380.5L423.0 437.7639320225002" stroke="#323232" stroke-width="2.0" stroke-dasharray="none" fill="none" marker-end="url(#ProcessOnMarker1041)"/><g id="ProcessOnG1043" transform="matrix(1.0,0.0,0.0,1.0,423.0,392.50696601125014)"><path id="ProcessOnPath1044" d="M0 0H21.0V16.25H0Z" fill="#fff" transform="matrix(1.0,0.0,0.0,1.0,-10.5,0.0)"/><text id="ProcessOnText1045" fill="#000000" font-size="13" x="0.0" y="13.325" font-family="微软雅黑" font-weight="normal" font-style="normal" text-decoration="none" family="微软雅黑" text-anchor="middle" size="13">Yes</text></g></g><g id="ProcessOnG1046" transform="matrix(1.0,0.0,0.0,1.0,366.0,453.0)" opacity="1.0"><path id="ProcessOnPath1047" d="M0.0 24.0L57.0 0.0L114.0 24.0L57.0 48.0L0.0 24.0Z" stroke="#323232" stroke-width="2.0" stroke-dasharray="none" opacity="1.0" fill="#ffffff"/><g id="ProcessOnG1048" transform="matrix(1.0,0.0,0.0,1.0,10.0,15.875)"><text id="ProcessOnText1049" fill="#000000" font-size="13" x="46.0" y="13.325" font-family="微软雅黑" font-weight="normal" font-style="normal" text-decoration="none" family="微软雅黑" text-anchor="middle" size="13">main 字段</text></g></g><g id="ProcessOnG1050" transform="matrix(1.0,0.0,0.0,1.0,596.0,458.0)" opacity="1.0"><path id="ProcessOnPath1051" d="M0.0 0.0L100.0 0.0L100.0 38.0L0.0 38.0Z" stroke="#323232" stroke-width="2.0" stroke-dasharray="none" opacity="1.0" fill="#ffffff"/><g id="ProcessOnG1052" transform="matrix(1.0,0.0,0.0,1.0,10.0,10.875)"><text id="ProcessOnText1053" fill="#000000" font-size="13" x="39.0" y="13.325" font-family="微软雅黑" font-weight="normal" font-style="normal" text-decoration="none" family="微软雅黑" text-anchor="middle" size="13">index.js</text></g></g><g id="ProcessOnG1054"><path id="ProcessOnPath1055" d="M631.0 380.5L646.0 380.5L646.0 442.7639320225002" stroke="#323232" stroke-width="2.0" stroke-dasharray="none" fill="none" marker-end="url(#ProcessOnMarker1056)"/><g id="ProcessOnG1058" transform="matrix(1.0,0.0,0.0,1.0,646.0,396.00696601125014)"><path id="ProcessOnPath1059" d="M0 0H19.0V16.25H0Z" fill="#fff" transform="matrix(1.0,0.0,0.0,1.0,-9.5,0.0)"/><text id="ProcessOnText1060" fill="#000000" font-size="13" x="0.0" y="13.325" font-family="微软雅黑" font-weight="normal" font-style="normal" text-decoration="none" family="微软雅黑" text-anchor="middle" size="13">No</text></g></g><g id="ProcessOnG1061"><path id="ProcessOnPath1062" d="M480.0 477.0L538.0 477.0L538.0 477.0L580.7639320225002 477.0" stroke="#323232" stroke-width="2.0" stroke-dasharray="none" fill="none" marker-end="url(#ProcessOnMarker1063)"/><g id="ProcessOnG1065" transform="matrix(1.0,0.0,0.0,1.0,530.3819660112501,468.875)"><path id="ProcessOnPath1066" d="M0 0H19.0V16.25H0Z" fill="#fff" transform="matrix(1.0,0.0,0.0,1.0,-9.5,0.0)"/><text id="ProcessOnText1067" fill="#000000" font-size="13" x="0.0" y="13.325" font-family="微软雅黑" font-weight="normal" font-style="normal" text-decoration="none" family="微软雅黑" text-anchor="middle" size="13">No</text></g></g><g id="ProcessOnG1068" transform="matrix(1.0,0.0,0.0,1.0,373.0,579.0)" opacity="1.0"><path id="ProcessOnPath1069" d="M0.0 0.0L100.0 0.0L100.0 45.0L0.0 45.0Z" stroke="#323232" stroke-width="2.0" stroke-dasharray="none" opacity="1.0" fill="#ffffff"/><g id="ProcessOnG1070" transform="matrix(1.0,0.0,0.0,1.0,10.0,6.25)"><text id="ProcessOnText1071" fill="#000000" font-size="13" x="39.0" y="13.325" font-family="微软雅黑" font-weight="normal" font-style="normal" text-decoration="none" family="微软雅黑" text-anchor="middle" size="13">mian字段文</text><text id="ProcessOnText1072" fill="#000000" font-size="13" x="39.0" y="29.575" font-family="微软雅黑" font-weight="normal" font-style="normal" text-decoration="none" family="微软雅黑" text-anchor="middle" size="13">件名</text></g></g><g id="ProcessOnG1073"><path id="ProcessOnPath1074" d="M423.0 501.0L423.0 540.0L423.0 540.0L423.0 563.7639320225002" stroke="#323232" stroke-width="2.0" stroke-dasharray="none" fill="none" marker-end="url(#ProcessOnMarker1075)"/><g id="ProcessOnG1077" transform="matrix(1.0,0.0,0.0,1.0,423.0,524.2569660112501)"><path id="ProcessOnPath1078" d="M0 0H21.0V16.25H0Z" fill="#fff" transform="matrix(1.0,0.0,0.0,1.0,-10.5,0.0)"/><text id="ProcessOnText1079" fill="#000000" font-size="13" x="0.0" y="13.325" font-family="微软雅黑" font-weight="normal" font-style="normal" text-decoration="none" family="微软雅黑" text-anchor="middle" size="13">Yes</text></g></g></g></g></svg>